<?xml version="1.0" encoding="utf-8"?>
<!-- Generator: Adobe Illustrator 16.0.4, SVG Export Plug-In . SVG Version: 6.00 Build 0)  -->
<!DOCTYPE svg PUBLIC "-//W3C//DTD SVG 1.1//EN" "http://www.w3.org/Graphics/SVG/1.1/DTD/svg11.dtd">
<svg version="1.1" id="Layer_1" xmlns="http://www.w3.org/2000/svg" xmlns:xlink="http://www.w3.org/1999/xlink" x="0px" y="0px"
	 width="200px" height="60px" viewBox="0 0 200 60" enable-background="new 0 0 200 60" xml:space="preserve">
<path fill="#FFFFFF" d="M19.047,32.179c-0.184,0.438-0.302,0.866-0.355,1.268c-0.055,0.404-0.044,0.781,0.028,1.11
	c0.074,0.336,0.21,0.621,0.407,0.836c0.2,0.218,0.461,0.364,0.779,0.416c0.323,0.053,0.672,0.003,1.027-0.133
	c0.356-0.135,0.717-0.356,1.061-0.647c0.343-0.288,0.667-0.646,0.949-1.052c0.281-0.403,0.521-0.852,0.696-1.326
	c0.173-0.471,0.269-0.92,0.293-1.329c0.023-0.404-0.022-0.769-0.13-1.076c-0.107-0.304-0.272-0.549-0.491-0.724
	c-0.217-0.173-0.485-0.274-0.799-0.29c-0.31-0.015-0.637,0.056-0.963,0.195c-0.326,0.141-0.651,0.349-0.96,0.611
	c-0.31,0.264-0.603,0.582-0.865,0.942C19.461,31.341,19.229,31.746,19.047,32.179"/>
<path fill="#FFFFFF" d="M18.025,39.61c-0.098,0.244-0.18,0.49-0.25,0.74c-0.067,0.25-0.122,0.5-0.157,0.75
	c-0.036,0.251-0.057,0.499-0.057,0.743c0,0.246,0.018,0.485,0.057,0.716c0.08,0.466,0.237,0.85,0.455,1.143
	c0.22,0.298,0.503,0.501,0.829,0.604c0.328,0.102,0.7,0.1,1.094-0.015c0.396-0.115,0.812-0.344,1.227-0.692
	c0.208-0.174,0.405-0.37,0.588-0.582c0.185-0.212,0.357-0.439,0.514-0.679c0.156-0.239,0.298-0.492,0.425-0.751
	c0.126-0.256,0.236-0.521,0.327-0.787c0.093-0.267,0.167-0.535,0.224-0.801c0.056-0.265,0.094-0.529,0.112-0.786
	c0.019-0.256,0.017-0.505-0.005-0.743c-0.021-0.238-0.062-0.465-0.125-0.681c-0.123-0.424-0.317-0.754-0.561-0.992
	c-0.24-0.234-0.53-0.381-0.85-0.434c-0.317-0.052-0.664-0.017-1.024,0.113c-0.358,0.125-0.729,0.345-1.101,0.656
	c-0.184,0.155-0.36,0.328-0.525,0.514c-0.167,0.186-0.322,0.387-0.467,0.597c-0.146,0.21-0.28,0.432-0.402,0.66
	C18.231,39.133,18.121,39.369,18.025,39.61"/>
<path fill="#FFFFFF" d="M21.976,44.531c-0.214,0.623-0.341,1.249-0.389,1.85c-0.046,0.61-0.01,1.194,0.105,1.725
	c0.118,0.537,0.318,1.019,0.595,1.406c0.28,0.396,0.639,0.696,1.071,0.863c0.438,0.169,0.906,0.186,1.376,0.066
	c0.473-0.118,0.946-0.372,1.389-0.738c0.442-0.368,0.854-0.847,1.204-1.411c0.347-0.561,0.633-1.204,0.829-1.9
	c0.195-0.688,0.283-1.364,0.279-1.993c-0.004-0.619-0.1-1.189-0.273-1.687c-0.17-0.487-0.416-0.903-0.725-1.218
	c-0.304-0.309-0.672-0.522-1.091-0.616c-0.414-0.094-0.842-0.061-1.263,0.077c-0.419,0.137-0.833,0.377-1.223,0.7
	c-0.387,0.325-0.753,0.737-1.072,1.219C22.466,43.358,22.188,43.916,21.976,44.531"/>
<path fill="#FFFFFF" d="M29.525,42.314c-0.084,0.299-0.148,0.604-0.19,0.914c-0.042,0.309-0.063,0.624-0.061,0.936
	c0.002,0.315,0.027,0.628,0.078,0.936c0.052,0.312,0.129,0.617,0.232,0.911c0.213,0.6,0.518,1.101,0.889,1.488
	c0.378,0.396,0.824,0.676,1.31,0.827c0.493,0.153,1.024,0.174,1.562,0.051c0.542-0.124,1.088-0.394,1.605-0.817
	c0.257-0.212,0.495-0.454,0.711-0.717s0.409-0.548,0.579-0.85c0.169-0.301,0.314-0.615,0.434-0.941
	c0.12-0.322,0.215-0.657,0.284-0.995c0.069-0.335,0.112-0.675,0.129-1.011s0.009-0.668-0.027-0.994
	c-0.035-0.322-0.095-0.637-0.184-0.94c-0.087-0.299-0.201-0.589-0.34-0.86c-0.276-0.537-0.629-0.958-1.032-1.264
	c-0.395-0.303-0.838-0.492-1.302-0.568c-0.458-0.077-0.937-0.044-1.413,0.103c-0.473,0.145-0.944,0.401-1.391,0.775
	c-0.225,0.188-0.433,0.393-0.624,0.618s-0.366,0.465-0.523,0.722c-0.157,0.256-0.297,0.526-0.419,0.805
	C29.711,41.724,29.608,42.017,29.525,42.314"/>
<path fill="#FFFFFF" d="M23.435,26.09c-0.073,0.183-0.133,0.366-0.179,0.548c-0.046,0.182-0.077,0.363-0.093,0.54
	c-0.015,0.177-0.015,0.35,0.002,0.517c0.017,0.167,0.051,0.326,0.105,0.477c0.107,0.303,0.279,0.536,0.502,0.697
	c0.224,0.163,0.499,0.253,0.805,0.269c0.311,0.013,0.651-0.05,1.004-0.193c0.355-0.143,0.721-0.364,1.079-0.666
	c0.179-0.152,0.346-0.316,0.5-0.49c0.155-0.172,0.297-0.354,0.425-0.542c0.128-0.188,0.243-0.381,0.341-0.577
	c0.099-0.195,0.184-0.393,0.251-0.589c0.067-0.196,0.12-0.389,0.154-0.581c0.035-0.189,0.054-0.375,0.055-0.553
	c0.001-0.178-0.016-0.348-0.049-0.509c-0.034-0.159-0.087-0.309-0.158-0.447c-0.139-0.271-0.339-0.468-0.578-0.594
	c-0.238-0.124-0.515-0.178-0.814-0.165c-0.297,0.015-0.617,0.095-0.943,0.24c-0.324,0.146-0.656,0.356-0.979,0.631
	c-0.162,0.138-0.312,0.285-0.454,0.44c-0.143,0.155-0.274,0.319-0.394,0.488c-0.12,0.167-0.231,0.342-0.328,0.52
	C23.592,25.729,23.506,25.909,23.435,26.09"/>
<path fill="#FFFFFF" d="M51.194,41.288c-0.017,0.245-0.021,0.492-0.008,0.741c0.012,0.253,0.041,0.508,0.083,0.765
	c0.043,0.259,0.104,0.52,0.181,0.782c0.078,0.266,0.173,0.531,0.286,0.796c0.349,0.817,0.837,1.557,1.426,2.193
	c0.602,0.648,1.309,1.189,2.076,1.59c0.784,0.411,1.628,0.675,2.483,0.766c0.869,0.09,1.745,0,2.57-0.302
	c0.557-0.203,1.053-0.488,1.481-0.839c0.429-0.353,0.789-0.77,1.075-1.236c0.285-0.463,0.495-0.973,0.627-1.517
	c0.131-0.535,0.185-1.101,0.158-1.676c-0.013-0.281-0.045-0.564-0.096-0.848c-0.05-0.283-0.12-0.565-0.209-0.849
	c-0.088-0.278-0.195-0.557-0.321-0.832c-0.125-0.271-0.269-0.542-0.431-0.807c-0.487-0.793-1.095-1.467-1.774-2.009
	c-0.664-0.531-1.396-0.936-2.151-1.204c-0.742-0.264-1.509-0.399-2.259-0.391c-0.741,0.008-1.472,0.151-2.154,0.448
	c-0.455,0.197-0.864,0.452-1.22,0.75c-0.358,0.299-0.667,0.643-0.923,1.023c-0.258,0.379-0.465,0.797-0.615,1.241
	C51.328,40.322,51.231,40.797,51.194,41.288"/>
<path fill="#FFFFFF" d="M59.234,32.539c0.002,0.572,0.114,1.147,0.325,1.705c0.214,0.567,0.529,1.119,0.936,1.631
	c0.414,0.521,0.925,1.006,1.517,1.423c0.604,0.428,1.294,0.79,2.058,1.061c0.929,0.326,1.873,0.482,2.781,0.479
	c0.922-0.003,1.802-0.167,2.586-0.479c0.79-0.313,1.476-0.774,2.006-1.357c0.529-0.586,0.896-1.287,1.056-2.083
	c0.026-0.13,0.047-0.257,0.06-0.387c0.015-0.129,0.024-0.257,0.026-0.386c0.004-0.128,0.001-0.257-0.007-0.385
	c-0.008-0.126-0.02-0.254-0.038-0.382c-0.093-0.646-0.321-1.278-0.658-1.872c-0.331-0.582-0.77-1.126-1.291-1.61
	c-0.513-0.474-1.104-0.889-1.756-1.225c-0.642-0.331-1.34-0.587-2.081-0.749c-0.866-0.192-1.713-0.239-2.504-0.162
	c-0.778,0.075-1.51,0.27-2.157,0.567c-0.644,0.296-1.21,0.694-1.664,1.179c-0.455,0.487-0.801,1.065-1.003,1.72
	c-0.033,0.108-0.062,0.215-0.086,0.324c-0.024,0.108-0.045,0.218-0.06,0.327c-0.017,0.11-0.028,0.219-0.036,0.329
	C59.237,32.319,59.234,32.429,59.234,32.539"/>
<path fill="#FFFFFF" d="M57.689,22.416c-0.003,0.173,0.01,0.346,0.035,0.518c0.027,0.173,0.065,0.347,0.122,0.519
	c0.055,0.174,0.125,0.346,0.211,0.515c0.085,0.172,0.188,0.341,0.308,0.506c0.364,0.511,0.848,0.943,1.417,1.287
	c0.58,0.351,1.246,0.61,1.958,0.763c0.725,0.158,1.494,0.207,2.265,0.134c0.78-0.073,1.555-0.27,2.276-0.601
	c0.484-0.223,0.912-0.492,1.276-0.797c0.365-0.304,0.665-0.642,0.9-1.001c0.232-0.359,0.396-0.738,0.491-1.126
	c0.093-0.387,0.117-0.78,0.07-1.17c-0.023-0.189-0.062-0.38-0.121-0.567c-0.056-0.186-0.13-0.37-0.222-0.551
	c-0.09-0.179-0.197-0.355-0.321-0.525c-0.124-0.171-0.263-0.336-0.42-0.496c-0.469-0.477-1.045-0.855-1.681-1.132
	c-0.623-0.273-1.304-0.448-2-0.525c-0.686-0.076-1.389-0.057-2.074,0.059c-0.675,0.115-1.335,0.325-1.946,0.635
	c-0.408,0.208-0.768,0.445-1.079,0.708c-0.313,0.264-0.578,0.552-0.792,0.856c-0.214,0.305-0.38,0.628-0.493,0.961
	C57.755,21.722,57.694,22.067,57.689,22.416"/>
<path fill="#FFFFFF" d="M50,17.973c-0.04,0.367-0.004,0.724,0.098,1.058c0.106,0.338,0.282,0.653,0.524,0.933
	c0.244,0.285,0.553,0.532,0.922,0.73c0.376,0.201,0.812,0.35,1.302,0.432c0.595,0.099,1.208,0.093,1.81-0.007
	c0.608-0.102,1.199-0.297,1.739-0.572c0.543-0.277,1.03-0.632,1.428-1.046c0.396-0.414,0.7-0.886,0.878-1.395
	c0.027-0.082,0.053-0.163,0.075-0.244c0.021-0.082,0.038-0.163,0.051-0.242c0.014-0.08,0.024-0.159,0.031-0.238
	c0.007-0.079,0.01-0.157,0.01-0.234c0-0.396-0.089-0.771-0.255-1.112c-0.164-0.336-0.402-0.64-0.702-0.897
	c-0.295-0.254-0.651-0.463-1.058-0.618c-0.399-0.152-0.848-0.251-1.334-0.285c-0.572-0.041-1.144,0.011-1.69,0.137
	c-0.54,0.125-1.059,0.324-1.528,0.582c-0.469,0.257-0.891,0.572-1.244,0.934c-0.352,0.363-0.636,0.773-0.825,1.219
	c-0.032,0.073-0.06,0.146-0.085,0.219c-0.025,0.072-0.047,0.145-0.066,0.216c-0.02,0.073-0.035,0.144-0.049,0.217
	C50.018,17.83,50.008,17.901,50,17.973"/>
<path fill="#FFFFFF" d="M40.277,40.972c-0.101,0.566-0.122,1.143-0.065,1.706c0.056,0.574,0.191,1.138,0.401,1.67
	c0.213,0.54,0.502,1.047,0.865,1.497c0.368,0.46,0.812,0.856,1.324,1.168c0.623,0.382,1.287,0.597,1.952,0.655
	c0.674,0.06,1.348-0.042,1.976-0.291c0.634-0.252,1.219-0.651,1.713-1.181c0.494-0.531,0.893-1.188,1.159-1.95
	c0.043-0.122,0.081-0.246,0.116-0.368c0.035-0.125,0.064-0.25,0.091-0.374s0.048-0.25,0.065-0.373
	c0.019-0.127,0.033-0.25,0.043-0.376c0.055-0.638,0.009-1.271-0.125-1.877c-0.132-0.595-0.349-1.161-0.64-1.675
	c-0.286-0.506-0.642-0.959-1.059-1.34c-0.41-0.376-0.877-0.681-1.392-0.897c-0.604-0.259-1.221-0.368-1.821-0.354
	c-0.592,0.017-1.17,0.154-1.706,0.4c-0.533,0.244-1.027,0.597-1.454,1.044c-0.428,0.449-0.792,0.997-1.061,1.633
	c-0.044,0.105-0.085,0.208-0.123,0.312c-0.039,0.107-0.074,0.214-0.105,0.321c-0.032,0.106-0.061,0.214-0.087,0.323
	C40.32,40.754,40.298,40.862,40.277,40.972"/>
<path fill="#FFFFFF" d="M40.874,9.508c-0.049,0.198-0.068,0.388-0.054,0.567c0.014,0.181,0.059,0.351,0.136,0.505
	c0.078,0.153,0.187,0.292,0.329,0.409c0.143,0.118,0.319,0.214,0.527,0.284c0.315,0.104,0.675,0.138,1.057,0.106
	c0.386-0.032,0.791-0.128,1.192-0.282c0.405-0.153,0.804-0.365,1.171-0.623c0.369-0.26,0.703-0.564,0.979-0.906
	c0.091-0.111,0.171-0.224,0.244-0.335c0.071-0.112,0.134-0.223,0.188-0.333c0.053-0.11,0.098-0.219,0.132-0.326
	c0.035-0.106,0.062-0.211,0.078-0.313c0.036-0.208,0.035-0.404-0.002-0.586c-0.036-0.181-0.105-0.346-0.208-0.491
	c-0.103-0.144-0.237-0.269-0.403-0.369c-0.163-0.1-0.358-0.177-0.581-0.223c-0.331-0.072-0.692-0.073-1.065-0.02
	c-0.37,0.053-0.749,0.162-1.12,0.318c-0.368,0.156-0.728,0.356-1.058,0.595c-0.331,0.237-0.634,0.514-0.889,0.82
	c-0.084,0.102-0.162,0.203-0.23,0.305c-0.07,0.102-0.132,0.203-0.186,0.303c-0.055,0.1-0.101,0.202-0.14,0.301
	C40.93,9.313,40.898,9.412,40.874,9.508"/>
<path fill="#FFFFFF" d="M35.364,10.083c-0.014,0.045-0.028,0.091-0.04,0.136c-0.011,0.046-0.021,0.09-0.029,0.134
	c-0.008,0.045-0.015,0.09-0.019,0.134c-0.005,0.044-0.008,0.088-0.009,0.132c-0.006,0.27,0.057,0.5,0.18,0.687
	c0.124,0.188,0.309,0.33,0.54,0.42c0.235,0.091,0.518,0.129,0.837,0.106c0.321-0.021,0.677-0.104,1.052-0.255
	c0.316-0.125,0.619-0.288,0.902-0.478c0.281-0.19,0.542-0.407,0.771-0.64c0.228-0.231,0.424-0.478,0.579-0.73
	c0.155-0.25,0.267-0.504,0.33-0.75c0.012-0.049,0.022-0.096,0.031-0.143c0.009-0.047,0.015-0.094,0.021-0.139
	c0.004-0.047,0.008-0.092,0.008-0.137c0.001-0.045,0-0.089-0.004-0.133c-0.021-0.269-0.118-0.49-0.272-0.659
	c-0.152-0.169-0.362-0.288-0.613-0.353c-0.248-0.063-0.536-0.077-0.85-0.036c-0.311,0.041-0.647,0.137-0.998,0.289
	c-0.292,0.126-0.569,0.283-0.826,0.461c-0.257,0.178-0.494,0.375-0.703,0.587c-0.211,0.212-0.396,0.437-0.546,0.667
	C35.556,9.615,35.44,9.851,35.364,10.083"/>
<path fill="#FFFFFF" d="M30.302,13.808c-0.071,0.189-0.118,0.375-0.139,0.55c-0.021,0.177-0.015,0.343,0.015,0.497
	c0.032,0.155,0.09,0.296,0.176,0.418c0.086,0.122,0.203,0.227,0.345,0.306c0.218,0.12,0.48,0.174,0.769,0.167
	c0.291-0.008,0.609-0.077,0.932-0.201c0.327-0.124,0.659-0.304,0.976-0.531c0.317-0.228,0.619-0.502,0.881-0.814
	c0.087-0.103,0.167-0.206,0.24-0.31c0.072-0.103,0.138-0.206,0.197-0.309c0.058-0.104,0.11-0.205,0.155-0.306
	c0.044-0.102,0.083-0.201,0.113-0.299c0.064-0.199,0.098-0.39,0.104-0.569c0.006-0.179-0.017-0.343-0.067-0.492
	c-0.049-0.148-0.127-0.277-0.231-0.386c-0.103-0.109-0.234-0.196-0.391-0.259c-0.231-0.09-0.5-0.118-0.787-0.09
	c-0.285,0.028-0.587,0.11-0.891,0.239c-0.302,0.125-0.606,0.299-0.895,0.511c-0.29,0.21-0.565,0.461-0.809,0.746
	c-0.08,0.093-0.156,0.188-0.226,0.282c-0.07,0.095-0.134,0.19-0.191,0.286c-0.059,0.095-0.111,0.19-0.157,0.284
	C30.377,13.622,30.335,13.716,30.302,13.808"/>
<path fill="#FFFFFF" d="M27.714,19.043c-0.02,0.053-0.039,0.105-0.057,0.159c-0.018,0.054-0.032,0.106-0.047,0.159
	c-0.013,0.054-0.026,0.106-0.038,0.16c-0.011,0.054-0.021,0.107-0.028,0.161c-0.048,0.328-0.026,0.621,0.056,0.868
	c0.083,0.251,0.227,0.456,0.422,0.604c0.197,0.151,0.446,0.244,0.736,0.271c0.292,0.027,0.625-0.015,0.988-0.136
	c0.305-0.102,0.604-0.251,0.889-0.438c0.284-0.186,0.554-0.409,0.795-0.656c0.242-0.246,0.456-0.516,0.635-0.799
	c0.177-0.281,0.318-0.574,0.414-0.865c0.018-0.056,0.035-0.112,0.049-0.168c0.014-0.057,0.028-0.113,0.039-0.168
	c0.011-0.055,0.021-0.112,0.028-0.166c0.008-0.055,0.013-0.11,0.017-0.164c0.023-0.333-0.031-0.618-0.144-0.852
	c-0.112-0.229-0.283-0.409-0.499-0.53c-0.214-0.119-0.473-0.182-0.763-0.182c-0.287,0-0.605,0.061-0.945,0.189
	c-0.281,0.107-0.555,0.253-0.814,0.428c-0.258,0.174-0.502,0.379-0.724,0.602c-0.222,0.224-0.421,0.469-0.592,0.725
	C27.96,18.502,27.818,18.772,27.714,19.043"/>
<path fill="#FFFFFF" d="M43.962,13.125c-0.011,0.058-0.021,0.115-0.027,0.172c-0.008,0.057-0.011,0.115-0.013,0.171
	c-0.003,0.058-0.003,0.114,0,0.17c0.002,0.058,0.008,0.114,0.015,0.17c0.045,0.347,0.182,0.651,0.392,0.899
	c0.214,0.252,0.503,0.451,0.85,0.586c0.351,0.135,0.762,0.206,1.208,0.203c0.452-0.005,0.941-0.086,1.444-0.255
	c0.424-0.143,0.824-0.334,1.188-0.563c0.363-0.229,0.688-0.495,0.964-0.784c0.276-0.287,0.501-0.597,0.666-0.915
	c0.164-0.316,0.267-0.639,0.301-0.955c0.007-0.061,0.01-0.121,0.011-0.182c0.002-0.061,0-0.121-0.004-0.18
	c-0.006-0.059-0.011-0.118-0.022-0.177c-0.01-0.058-0.023-0.115-0.038-0.172c-0.092-0.348-0.282-0.638-0.542-0.865
	c-0.257-0.225-0.583-0.388-0.955-0.485c-0.366-0.095-0.778-0.126-1.213-0.091c-0.43,0.036-0.883,0.138-1.343,0.313
	c-0.38,0.144-0.737,0.328-1.06,0.54c-0.321,0.21-0.611,0.449-0.86,0.706c-0.25,0.257-0.46,0.533-0.623,0.817
	C44.136,12.538,44.02,12.833,43.962,13.125"/>
<path fill="#E1EEF4" d="M25.048,32.847c0,0.003-0.002,0.004-0.002,0.004c0,0.003,0,0.005-0.002,0.006c0,0.001,0,0.002-0.001,0.004
	c0,0.001,0,0.002,0,0.004c-0.232,0.656-0.356,1.305-0.383,1.911c-0.026,0.621,0.049,1.203,0.22,1.717
	c0.175,0.524,0.448,0.981,0.813,1.33c0.373,0.355,0.839,0.604,1.39,0.703c0.56,0.102,1.149,0.041,1.734-0.158
	c0.59-0.2,1.17-0.539,1.708-0.989c0.538-0.451,1.025-1.01,1.431-1.646c0.402-0.633,0.719-1.334,0.919-2.075
	c0.001-0.002,0.002-0.003,0.002-0.006c0,0,0-0.001,0.002-0.003c0-0.002,0-0.004,0-0.006c0.001-0.001,0.002-0.003,0.002-0.003
	c0.058-0.223,0.106-0.438,0.141-0.653c0.036-0.212,0.058-0.423,0.071-0.625c0.013-0.204,0.014-0.402,0.006-0.594
	c-0.01-0.191-0.029-0.377-0.059-0.556c-0.011-0.063-0.017-0.125-0.02-0.182c-0.003-0.058-0.001-0.112,0.002-0.164
	c0.004-0.05,0.01-0.097,0.017-0.142c0.008-0.043,0.018-0.083,0.027-0.118c0.008-0.029,0.016-0.056,0.024-0.078
	s0.016-0.042,0.021-0.057c0.008-0.016,0.013-0.028,0.017-0.037c0.004-0.007,0.006-0.011,0.006-0.011s0.055-0.06,0.145-0.157
	c0.091-0.098,0.218-0.232,0.36-0.381c0.145-0.148,0.305-0.312,0.465-0.469c0.16-0.155,0.317-0.303,0.458-0.42
	c0.139-0.118,0.296-0.171,0.454-0.186c0.158-0.014,0.315,0.012,0.458,0.052c0.143,0.042,0.268,0.098,0.358,0.143
	c0.09,0.047,0.144,0.083,0.144,0.083s0.051,0.032,0.148,0.075c0.098,0.043,0.243,0.098,0.43,0.144
	c0.189,0.045,0.421,0.083,0.692,0.091c0.272,0.008,0.584-0.015,0.93-0.09c0.312-0.066,0.624-0.185,0.917-0.327
	c0.294-0.14,0.57-0.304,0.806-0.46c0.236-0.155,0.434-0.303,0.57-0.411c0.138-0.107,0.216-0.177,0.216-0.177s0.057-0.065,0.15-0.16
	c0.096-0.095,0.229-0.218,0.382-0.337c0.154-0.118,0.327-0.23,0.503-0.302c0.176-0.07,0.357-0.099,0.521-0.051
	c0.167,0.048,0.357,0.119,0.551,0.196c0.195,0.079,0.392,0.167,0.569,0.247c0.178,0.081,0.336,0.158,0.45,0.212
	c0.114,0.056,0.184,0.092,0.184,0.092s0.017,0.017,0.039,0.05c0.024,0.034,0.055,0.084,0.083,0.154
	c0.029,0.067,0.056,0.154,0.071,0.257c0.017,0.103,0.02,0.223,0.003,0.361c-0.019,0.203-0.026,0.406-0.022,0.611
	c0.004,0.206,0.021,0.412,0.05,0.618c0.029,0.207,0.07,0.415,0.126,0.62c0.055,0.208,0.124,0.414,0.207,0.618
	c0.292,0.721,0.731,1.351,1.28,1.871c0.563,0.532,1.241,0.949,1.993,1.228c0.768,0.285,1.611,0.425,2.479,0.396
	c0.883-0.026,1.786-0.228,2.653-0.621c0.583-0.267,1.109-0.603,1.573-0.99c0.461-0.391,0.858-0.832,1.182-1.308
	c0.323-0.475,0.572-0.985,0.745-1.513c0.17-0.521,0.263-1.06,0.276-1.599c0.006-0.265-0.007-0.528-0.041-0.791
	c-0.034-0.261-0.086-0.52-0.159-0.774c-0.072-0.252-0.164-0.501-0.275-0.744c-0.112-0.24-0.242-0.477-0.392-0.704
	c-0.445-0.674-1.021-1.219-1.675-1.632c-0.64-0.403-1.355-0.679-2.103-0.825c-0.733-0.143-1.5-0.162-2.259-0.051
	c-0.749,0.109-1.496,0.345-2.207,0.713c-0.212,0.11-0.415,0.23-0.609,0.356c-0.193,0.127-0.377,0.263-0.554,0.404
	c-0.174,0.143-0.34,0.293-0.496,0.449c-0.157,0.155-0.303,0.318-0.44,0.488c-0.089,0.11-0.179,0.198-0.264,0.27
	c-0.085,0.069-0.167,0.123-0.236,0.16c-0.069,0.039-0.127,0.062-0.169,0.077c-0.041,0.016-0.065,0.021-0.065,0.021
	s-0.079-0.008-0.211-0.021c-0.13-0.013-0.311-0.031-0.512-0.055c-0.199-0.024-0.42-0.055-0.63-0.089
	c-0.21-0.034-0.412-0.074-0.578-0.118c-0.166-0.043-0.281-0.152-0.361-0.292c-0.08-0.138-0.124-0.305-0.147-0.466
	c-0.024-0.162-0.028-0.315-0.026-0.43c0.003-0.114,0.011-0.189,0.011-0.189s0.005-0.064,0-0.174
	c-0.003-0.111-0.019-0.271-0.058-0.459c-0.039-0.187-0.101-0.404-0.203-0.635c-0.101-0.227-0.24-0.467-0.429-0.704
	c-0.188-0.232-0.402-0.41-0.615-0.547c-0.21-0.135-0.423-0.228-0.61-0.293c-0.188-0.064-0.351-0.101-0.467-0.122
	c-0.116-0.02-0.187-0.024-0.187-0.024s-0.068,0-0.169-0.009c-0.101-0.01-0.235-0.028-0.37-0.065c-0.135-0.036-0.27-0.09-0.372-0.169
	c-0.101-0.08-0.17-0.186-0.174-0.324c-0.006-0.139,0-0.305,0.011-0.475c0.009-0.17,0.026-0.343,0.043-0.5
	c0.017-0.155,0.034-0.292,0.047-0.392s0.021-0.159,0.021-0.159s0.009-0.019,0.027-0.051c0.019-0.032,0.049-0.077,0.092-0.13
	c0.042-0.052,0.098-0.113,0.167-0.176c0.07-0.063,0.156-0.127,0.259-0.189c0.148-0.094,0.295-0.195,0.439-0.304
	c0.144-0.107,0.283-0.221,0.42-0.341c0.135-0.121,0.267-0.247,0.392-0.381c0.127-0.131,0.247-0.27,0.362-0.413
	c0.13-0.163,0.248-0.328,0.354-0.492c0.105-0.164,0.199-0.33,0.281-0.494c0.081-0.166,0.15-0.329,0.208-0.491
	c0.058-0.161,0.103-0.322,0.137-0.479c0.07-0.321,0.091-0.631,0.065-0.922c-0.025-0.287-0.099-0.553-0.215-0.794
	c-0.116-0.237-0.275-0.447-0.477-0.625c-0.2-0.176-0.44-0.316-0.719-0.417c-0.41-0.149-0.868-0.199-1.343-0.165
	c-0.468,0.035-0.957,0.152-1.437,0.34c-0.477,0.187-0.949,0.442-1.39,0.759c-0.439,0.316-0.852,0.693-1.209,1.124
	c-0.119,0.141-0.226,0.283-0.326,0.427c-0.1,0.143-0.19,0.288-0.271,0.433c-0.081,0.146-0.154,0.29-0.217,0.435
	c-0.062,0.146-0.117,0.29-0.162,0.434c-0.092,0.297-0.146,0.59-0.16,0.869c-0.012,0.284,0.015,0.553,0.086,0.805
	c0.07,0.255,0.185,0.49,0.341,0.698c0.161,0.209,0.364,0.39,0.614,0.536c0.114,0.065,0.233,0.121,0.357,0.169
	c0.125,0.047,0.256,0.085,0.392,0.114c0.135,0.029,0.275,0.048,0.42,0.059c0.145,0.01,0.293,0.012,0.445,0.004
	c0.099-0.006,0.183,0.002,0.252,0.016c0.069,0.015,0.124,0.035,0.167,0.056c0.042,0.022,0.072,0.044,0.093,0.061
	c0.019,0.018,0.028,0.029,0.028,0.029s0.011,0.052,0.029,0.14c0.018,0.087,0.041,0.211,0.065,0.352s0.048,0.299,0.067,0.457
	c0.019,0.159,0.032,0.316,0.035,0.456c0.001,0.011,0.001,0.022-0.001,0.033c0,0.012-0.001,0.024-0.002,0.036
	c-0.002,0.011-0.003,0.023-0.005,0.036c-0.004,0.011-0.006,0.023-0.01,0.036c-0.032,0.128-0.109,0.259-0.208,0.382
	c-0.098,0.124-0.216,0.241-0.33,0.34c-0.113,0.099-0.223,0.182-0.304,0.24c-0.082,0.058-0.135,0.092-0.135,0.092
	c-0.076,0.057-0.186,0.147-0.313,0.267c-0.129,0.118-0.277,0.266-0.433,0.44c-0.156,0.173-0.319,0.372-0.477,0.593
	c-0.159,0.221-0.312,0.464-0.448,0.726c-0.035,0.066-0.067,0.133-0.097,0.199c-0.029,0.066-0.057,0.131-0.082,0.197
	c-0.026,0.065-0.049,0.129-0.069,0.193c-0.021,0.063-0.041,0.126-0.059,0.189c-0.051,0.184-0.085,0.358-0.109,0.516
	c-0.024,0.16-0.038,0.302-0.043,0.422c-0.005,0.12-0.005,0.217-0.003,0.285c0.002,0.068,0.006,0.105,0.006,0.105
	s0.003,0.03,0.009,0.083c0.006,0.053,0.012,0.127,0.016,0.215c0.001,0.09,0,0.194-0.01,0.305c-0.011,0.111-0.029,0.228-0.06,0.343
	c-0.014,0.052-0.031,0.104-0.052,0.156c-0.02,0.052-0.042,0.1-0.07,0.149c-0.027,0.047-0.057,0.094-0.093,0.136
	c-0.034,0.043-0.072,0.083-0.115,0.12c-0.137,0.116-0.303,0.243-0.475,0.368c-0.171,0.125-0.349,0.249-0.508,0.358
	c-0.161,0.108-0.304,0.204-0.407,0.271c-0.102,0.066-0.165,0.107-0.165,0.107s-0.021,0.006-0.056,0.012
	c-0.035,0.007-0.084,0.012-0.145,0.01c-0.058-0.002-0.128-0.012-0.199-0.036c-0.072-0.022-0.147-0.062-0.219-0.121
	c-0.111-0.083-0.228-0.156-0.349-0.219c-0.122-0.064-0.248-0.118-0.381-0.163c-0.131-0.045-0.269-0.08-0.411-0.105
	c-0.141-0.024-0.287-0.04-0.437-0.043c-0.52-0.015-1.046,0.096-1.557,0.307c-0.508,0.21-1.001,0.52-1.461,0.908
	c-0.458,0.388-0.881,0.857-1.247,1.388C25.588,31.602,25.277,32.203,25.048,32.847"/>
<path fill="#FFFFFF" d="M93.744,37.208l12.416,17.09h-7.403L87.302,37.884h-1.091v16.414H80.16V14.196h7.091
	c5.298,0,9.125,0.996,11.48,2.986c2.597,2.217,3.896,5.143,3.896,8.779c0,2.84-0.814,5.282-2.442,7.324
	C98.558,35.33,96.41,36.637,93.744,37.208z M86.211,32.61h1.922c5.73,0,8.597-2.189,8.597-6.571c0-4.104-2.788-6.155-8.363-6.155
	h-2.156V32.61z"/>
<path fill="#FFFFFF" d="M113.98,29.884h17.298V14.196h6.053v40.102h-6.053V35.572H113.98v18.726h-6.051V14.196h6.051V29.884z"/>
<path fill="#FFFFFF" d="M182.426,55.025h-7.61l-3.144-3.221c-3.341,2.148-7.064,3.221-11.168,3.221
	c-5.315,0-10.034-1.8-14.155-5.402c-4.485-3.965-6.727-9.029-6.727-15.194c0-6.042,2.12-11.081,6.363-15.116
	c4.12-3.913,8.986-5.87,14.597-5.87c5.091,0,9.653,1.714,13.688,5.143c4.848,4.121,7.272,9.498,7.272,16.129
	c0,5.194-1.914,9.81-5.741,13.844L182.426,55.025z M165.776,38.412l5.818,5.787c2.562-2.664,3.844-5.96,3.844-9.887
	c0-4.308-1.428-7.916-4.285-10.822s-6.407-4.36-10.649-4.36c-4.295,0-7.826,1.454-10.597,4.36c-2.788,2.89-4.182,6.548-4.182,10.977
	c0,4.326,1.438,7.863,4.312,10.614c2.995,2.837,6.415,4.255,10.259,4.255c2.614,0,4.979-0.596,7.091-1.79l-9.428-9.135H165.776z"/>
</svg>
